<mxfile host="app.diagrams.net" agent="Mozilla/5.0 (Windows NT 10.0; Win64; x64) AppleWebKit/537.36 (KHTML, like Gecko) Chrome/131.0.0.0 Safari/537.36" version="25.0.3">
  <diagram name="Trang-1" id="vbJhnicoQcnV4JYbQOCs">
    <mxGraphModel dx="1434" dy="746" grid="1" gridSize="10" guides="1" tooltips="1" connect="1" arrows="1" fold="1" page="1" pageScale="1" pageWidth="827" pageHeight="1169" math="0" shadow="0">
      <root>
        <mxCell id="0" />
        <mxCell id="1" parent="0" />
        <mxCell id="vwMf4jhueNgfjDEwlJ7_-3" value="" style="edgeStyle=orthogonalEdgeStyle;rounded=0;orthogonalLoop=1;jettySize=auto;html=1;" edge="1" parent="1" source="vwMf4jhueNgfjDEwlJ7_-1" target="vwMf4jhueNgfjDEwlJ7_-2">
          <mxGeometry relative="1" as="geometry" />
        </mxCell>
        <mxCell id="vwMf4jhueNgfjDEwlJ7_-1" value="START" style="strokeWidth=2;html=1;shape=mxgraph.flowchart.start_1;whiteSpace=wrap;" vertex="1" parent="1">
          <mxGeometry x="350" y="50" width="100" height="60" as="geometry" />
        </mxCell>
        <mxCell id="vwMf4jhueNgfjDEwlJ7_-5" value="" style="edgeStyle=orthogonalEdgeStyle;rounded=0;orthogonalLoop=1;jettySize=auto;html=1;" edge="1" parent="1" source="vwMf4jhueNgfjDEwlJ7_-2" target="vwMf4jhueNgfjDEwlJ7_-4">
          <mxGeometry relative="1" as="geometry" />
        </mxCell>
        <mxCell id="vwMf4jhueNgfjDEwlJ7_-2" value="sumA,sumB" style="whiteSpace=wrap;html=1;strokeWidth=2;" vertex="1" parent="1">
          <mxGeometry x="340" y="190" width="120" height="60" as="geometry" />
        </mxCell>
        <mxCell id="vwMf4jhueNgfjDEwlJ7_-7" value="" style="edgeStyle=orthogonalEdgeStyle;rounded=0;orthogonalLoop=1;jettySize=auto;html=1;" edge="1" parent="1" source="vwMf4jhueNgfjDEwlJ7_-4" target="vwMf4jhueNgfjDEwlJ7_-6">
          <mxGeometry relative="1" as="geometry" />
        </mxCell>
        <mxCell id="vwMf4jhueNgfjDEwlJ7_-4" value="sum= A + B" style="whiteSpace=wrap;html=1;strokeWidth=2;" vertex="1" parent="1">
          <mxGeometry x="340" y="330" width="120" height="60" as="geometry" />
        </mxCell>
        <mxCell id="vwMf4jhueNgfjDEwlJ7_-6" value="prinf" style="rhombus;whiteSpace=wrap;html=1;strokeWidth=2;" vertex="1" parent="1">
          <mxGeometry x="360" y="460" width="80" height="80" as="geometry" />
        </mxCell>
        <mxCell id="vwMf4jhueNgfjDEwlJ7_-8" value="START" style="strokeWidth=2;html=1;shape=mxgraph.flowchart.start_1;whiteSpace=wrap;" vertex="1" parent="1">
          <mxGeometry x="350" y="585" width="100" height="60" as="geometry" />
        </mxCell>
        <mxCell id="vwMf4jhueNgfjDEwlJ7_-9" style="edgeStyle=orthogonalEdgeStyle;rounded=0;orthogonalLoop=1;jettySize=auto;html=1;entryX=0.5;entryY=0;entryDx=0;entryDy=0;entryPerimeter=0;" edge="1" parent="1" source="vwMf4jhueNgfjDEwlJ7_-6" target="vwMf4jhueNgfjDEwlJ7_-8">
          <mxGeometry relative="1" as="geometry" />
        </mxCell>
      </root>
    </mxGraphModel>
  </diagram>
</mxfile>
